<svg id="icon" xmlns="http://www.w3.org/2000/svg" xmlns:xlink="http://www.w3.org/1999/xlink" viewBox="0 0 48 48"><path xmlns="http://www.w3.org/2000/svg" d="M47.5,27.4c0-2.3-0.9-4.5-2.4-6.1c0-0.1-0.1-0.1-0.1-0.2C44.4,10.1,35.2,1.3,24,1.3S3.6,10.1,2.9,21.1  c0,0.1-0.1,0.1-0.1,0.2c-1.5,1.6-2.4,3.7-2.4,6.1c0,4.6,3.5,8.4,8,9c0.5,0.1,1-0.4,1-0.9l0-16.1c0-0.5-0.5-1-1-0.9  c-0.3,0-0.7,0.1-1,0.2c-0.2,0.1-0.4-0.2-0.4-0.4C9,10.6,15.8,5,24,5s15,5.6,16.9,13.2c0.1,0.2-0.2,0.4-0.4,0.4  c-0.3-0.1-0.7-0.1-1-0.2c-0.5-0.1-1,0.4-1,0.9l0,16.1c0,0.5,0.5,1,1,0.9c0,0,0,0,0,0c0.4,0,0.7,0.3,0.6,0.7  c-0.3,1.1-0.8,2.4-1.8,3.5c-1.1,1.2-2.6,2-4.4,2.4c-0.2,0-0.4,0-0.6-0.2c-0.6-0.6-1.5-1-2.6-1c-1.8,0-3.3,1.1-3.3,2.5  s1.5,2.5,3.3,2.5c1.3,0,2.5-0.6,3-1.5c0.1-0.1,0.2-0.3,0.4-0.3c2.4-0.5,4.3-1.5,5.7-3.1c1.8-2,2.3-4.5,2.5-6c0-0.2,0.1-0.4,0.3-0.5  C45.5,33.8,47.5,30.8,47.5,27.4z" style="fill: inherit;"></path></svg>